<svg width="20" height="20" viewBox="0 0 20 20" fill="none" xmlns="http://www.w3.org/2000/svg">
<path d="M9.21373 1.11751C9.3702 0.454433 9.44843 0.122896 9.57424 0.0482295C9.68259 -0.0160765 9.81741 -0.0160765 9.92576 0.0482295C10.0516 0.122896 10.1298 0.454434 10.2863 1.11751L11.0497 4.35302C11.3337 5.55636 11.4757 6.15803 11.7843 6.64596C12.0571 7.07744 12.4226 7.44285 12.854 7.71574C13.342 8.02432 13.9436 8.1663 15.147 8.45025L18.3825 9.21373C19.0456 9.3702 19.3771 9.44843 19.4518 9.57424C19.5161 9.68259 19.5161 9.81741 19.4518 9.92576C19.3771 10.0516 19.0456 10.1298 18.3825 10.2863L15.147 11.0497C13.9436 11.3337 13.342 11.4757 12.854 11.7843C12.4226 12.0571 12.0571 12.4226 11.7843 12.854C11.4757 13.342 11.3337 13.9436 11.0497 15.147L10.2863 18.3825C10.1298 19.0456 10.0516 19.3771 9.92576 19.4518C9.81741 19.5161 9.68259 19.5161 9.57424 19.4518C9.44843 19.3771 9.3702 19.0456 9.21373 18.3825L8.45025 15.147C8.1663 13.9436 8.02432 13.342 7.71574 12.854C7.44285 12.4226 7.07744 12.0571 6.64596 11.7843C6.15803 11.4757 5.55636 11.3337 4.35301 11.0497L1.11751 10.2863C0.454433 10.1298 0.122896 10.0516 0.0482295 9.92576C-0.0160765 9.81741 -0.0160765 9.68259 0.0482295 9.57424C0.122896 9.44843 0.454434 9.3702 1.11751 9.21373L4.35302 8.45025C5.55636 8.1663 6.15803 8.02432 6.64596 7.71574C7.07744 7.44285 7.44285 7.07744 7.71574 6.64596C8.02432 6.15803 8.1663 5.55636 8.45025 4.35301L9.21373 1.11751Z" fill="black"/>
</svg>
